<svg width="24" height="24" viewBox="0 0 24 24" fill="none" xmlns="http://www.w3.org/2000/svg">
<path d="M11 12C13.2091 12 15 10.2091 15 8C15 5.79086 13.2091 4 11 4C8.79086 4 7 5.79086 7 8C7 10.2091 8.79086 12 11 12Z" stroke="#ED4247" stroke-width="1.5" stroke-linecap="round" stroke-linejoin="round"/>
<path d="M14.5 15H9C6.23858 15 4 17.2386 4 20" stroke="#ED4247" stroke-width="1.5" stroke-linecap="round" stroke-linejoin="round"/>
<path d="M17 20C18.6569 20 20 18.6569 20 17C20 15.3431 18.6569 14 17 14C15.3431 14 14 15.3431 14 17C14 18.6569 15.3431 20 17 20Z" stroke="#ED4247" stroke-width="1.5" stroke-linecap="round" stroke-linejoin="round"/>
<path d="M16 17H18" stroke="#ED4247" stroke-width="1.5" stroke-linecap="round" stroke-linejoin="round"/>
</svg>
