<svg width="24" height="24" viewBox="0 0 24 24" fill="none" xmlns="http://www.w3.org/2000/svg">
<path d="M12 20C16.4183 20 20 16.4183 20 12C20 7.58172 16.4183 4 12 4C7.58172 4 4 7.58172 4 12C4 16.4183 7.58172 20 12 20Z" stroke="#212121" stroke-width="1.5" stroke-linecap="round" stroke-linejoin="round"/>
<path d="M9.67188 9.60016C9.85996 9.0655 10.2312 8.61465 10.7198 8.32747C11.2085 8.04029 11.783 7.93531 12.3416 8.03113C12.9002 8.12695 13.4069 8.41738 13.7719 8.85098C14.1369 9.28459 14.3367 9.83338 14.3359 10.4002C14.3359 12.0002 11.9359 12.8002 11.9359 12.8002" stroke="#212121" stroke-width="1.5" stroke-linecap="round" stroke-linejoin="round"/>
<path d="M12 16H12.008" stroke="#212121" stroke-width="1.5" stroke-linecap="round" stroke-linejoin="round"/>
</svg>
