<svg width="96" height="96" viewBox="0 0 96 96" fill="none" xmlns="http://www.w3.org/2000/svg">
<rect x="0.75" y="0.75" width="94.5" height="94.5" rx="7.25" fill="#ED4247" fill-opacity="0.03" stroke="#ED4247" stroke-width="1.5" stroke-linecap="round" stroke-linejoin="round" stroke-dasharray="8 12"/>
<rect opacity="0.2" x="28" y="28" width="40" height="40" rx="8" fill="url(#paint0_linear_1048_100358)"/>
<mask id="mask0_1048_100358" style="mask-type:alpha" maskUnits="userSpaceOnUse" x="28" y="28" width="40" height="40">
<rect x="28" y="28" width="40" height="40" rx="8" fill="url(#paint1_linear_1048_100358)"/>
</mask>
<g mask="url(#mask0_1048_100358)">
<path opacity="0.3" d="M30.5058 50.6171C31.8699 49.1234 34.1345 48.8832 35.7816 50.0576L48.8333 59.3636V68.8333H20.5V61.5732L30.5058 50.6171Z" fill="url(#paint2_linear_1048_100358)"/>
<path d="M48.652 46.3712C50.1664 44.938 52.5276 44.9084 54.0774 46.3032L68 58.8335V71.3335H28V65.9168L48.652 46.3712Z" fill="url(#paint3_linear_1048_100358)"/>
<circle cx="36.3333" cy="35.4998" r="3.33333" fill="url(#paint4_linear_1048_100358)"/>
</g>
<defs>
<linearGradient id="paint0_linear_1048_100358" x1="68" y1="68" x2="39.3556" y2="21.0691" gradientUnits="userSpaceOnUse">
<stop stop-color="#FA6400"/>
<stop offset="1" stop-color="#E0208C"/>
</linearGradient>
<linearGradient id="paint1_linear_1048_100358" x1="68" y1="68" x2="39.3556" y2="21.0691" gradientUnits="userSpaceOnUse">
<stop stop-color="#FA6400"/>
<stop offset="1" stop-color="#E0208C"/>
</linearGradient>
<linearGradient id="paint2_linear_1048_100358" x1="48.8333" y1="68.8333" x2="25.4667" y2="73.4021" gradientUnits="userSpaceOnUse">
<stop stop-color="#FA6400"/>
<stop offset="1" stop-color="#E0208C"/>
</linearGradient>
<linearGradient id="paint3_linear_1048_100358" x1="68" y1="71.3335" x2="35.1857" y2="78.1955" gradientUnits="userSpaceOnUse">
<stop stop-color="#FA6400"/>
<stop offset="1" stop-color="#E0208C"/>
</linearGradient>
<linearGradient id="paint4_linear_1048_100358" x1="39.6667" y1="38.8332" x2="34.074" y2="39.6372" gradientUnits="userSpaceOnUse">
<stop stop-color="#FA6400"/>
<stop offset="1" stop-color="#E0208C"/>
</linearGradient>
</defs>
</svg>
