<svg width="40" height="40" viewBox="0 0 40 40" fill="none" xmlns="http://www.w3.org/2000/svg">
<path d="M31.3947 10.1218C30.7223 9.44911 29.924 8.9155 29.0454 8.55144C28.1668 8.18738 27.225 8 26.2739 8C25.3229 8 24.3811 8.18738 23.5025 8.55144C22.6239 8.9155 21.8256 9.44911 21.1532 10.1218L19.7579 11.5171L18.3625 10.1218C17.0044 8.76368 15.1624 8.0007 13.2418 8.0007C11.3211 8.0007 9.47917 8.76368 8.12107 10.1218C6.76297 11.4799 6 13.3218 6 15.2425C6 17.1631 6.76297 19.0051 8.12107 20.3632L9.51643 21.7586L19.7579 32L29.9993 21.7586L31.3947 20.3632C32.0673 19.6909 32.6009 18.8926 32.965 18.0139C33.329 17.1353 33.5164 16.1936 33.5164 15.2425C33.5164 14.2914 33.329 13.3497 32.965 12.471C32.6009 11.5924 32.0673 10.7941 31.3947 10.1218V10.1218Z" stroke="#ED4247" stroke-width="2" stroke-linecap="round" stroke-linejoin="round"/>
</svg>
