<svg width="27" height="24" viewBox="0 0 27 24" fill="none" xmlns="http://www.w3.org/2000/svg">
<path opacity="0.6" d="M13.3394 2.1486C13.4311 1.96281 13.6961 1.96281 13.7878 2.1486L14.4603 1.81663L13.7878 2.1486L16.5577 7.76011C16.8124 8.27609 17.3045 8.6339 17.8738 8.71712L24.0697 9.62273C24.2746 9.65269 24.3563 9.90465 24.2079 10.0492L19.7262 14.4144C19.3135 14.8164 19.1251 15.3959 19.2225 15.9638L20.2799 22.1294C20.315 22.3337 20.1006 22.4894 19.9172 22.3929L14.3781 19.48C13.8682 19.2119 13.259 19.2119 12.7491 19.48L13.0982 20.1438L12.7491 19.48L7.21004 22.3929C7.02664 22.4894 6.81225 22.3337 6.84728 22.1294L7.90475 15.9638C8.00216 15.3959 7.81375 14.8164 7.40097 14.4144L2.91929 10.0492C2.77089 9.90465 2.85259 9.65269 3.05757 9.62273L9.25339 8.71712C9.82276 8.6339 10.3148 8.27609 10.5695 7.76011L13.3394 2.1486Z" stroke="#212121" stroke-width="1.5" stroke-linecap="round" stroke-linejoin="round"/>
</svg>
