<svg width="352" height="248" viewBox="0 0 352 248" fill="none" xmlns="http://www.w3.org/2000/svg">
<rect x="0.75" y="0.75" width="350.5" height="246.5" rx="7.25" fill="#ED4247" fill-opacity="0.03" stroke="#ED4247" stroke-width="1.5" stroke-linecap="round" stroke-linejoin="round" stroke-dasharray="8 12"/>
<rect opacity="0.2" x="144" y="92" width="64" height="64" rx="8" fill="url(#paint0_linear_1048_101890)"/>
<mask id="mask0_1048_101890" style="mask-type:alpha" maskUnits="userSpaceOnUse" x="144" y="92" width="64" height="64">
<rect x="144" y="92" width="64" height="64" rx="8" fill="url(#paint1_linear_1048_101890)"/>
</mask>
<g mask="url(#mask0_1048_101890)">
<path opacity="0.3" d="M149.443 126.617C150.807 125.123 153.072 124.883 154.719 126.058L177.333 142.182V157.333H132V145.717L149.443 126.617Z" fill="url(#paint2_linear_1048_101890)"/>
<path d="M178.652 119.871C180.166 118.437 182.528 118.408 184.077 119.803L208 141.333V161.333H144V152.666L178.652 119.871Z" fill="url(#paint3_linear_1048_101890)"/>
<circle cx="157.333" cy="104" r="5.33333" fill="url(#paint4_linear_1048_101890)"/>
</g>
<defs>
<linearGradient id="paint0_linear_1048_101890" x1="208" y1="156" x2="162.169" y2="80.9105" gradientUnits="userSpaceOnUse">
<stop stop-color="#FA6400"/>
<stop offset="1" stop-color="#E0208C"/>
</linearGradient>
<linearGradient id="paint1_linear_1048_101890" x1="208" y1="156" x2="162.169" y2="80.9105" gradientUnits="userSpaceOnUse">
<stop stop-color="#FA6400"/>
<stop offset="1" stop-color="#E0208C"/>
</linearGradient>
<linearGradient id="paint2_linear_1048_101890" x1="177.333" y1="157.333" x2="139.947" y2="164.643" gradientUnits="userSpaceOnUse">
<stop stop-color="#FA6400"/>
<stop offset="1" stop-color="#E0208C"/>
</linearGradient>
<linearGradient id="paint3_linear_1048_101890" x1="208" y1="161.333" x2="155.497" y2="172.312" gradientUnits="userSpaceOnUse">
<stop stop-color="#FA6400"/>
<stop offset="1" stop-color="#E0208C"/>
</linearGradient>
<linearGradient id="paint4_linear_1048_101890" x1="162.667" y1="109.334" x2="153.718" y2="110.62" gradientUnits="userSpaceOnUse">
<stop stop-color="#FA6400"/>
<stop offset="1" stop-color="#E0208C"/>
</linearGradient>
</defs>
</svg>
