<svg width="24" height="24" viewBox="0 0 24 24" fill="none" xmlns="http://www.w3.org/2000/svg">
<path d="M7 20H6C4.89543 20 4 19.1046 4 18V6C4 4.89543 4.89543 4 6 4H18C19.1046 4 20 4.89543 20 6V7" stroke="#212B36" stroke-width="1.5" stroke-linecap="round" stroke-linejoin="round"/>
<path d="M13.3334 18.3334V11.1111L20.0001 10V17.2223" stroke="#212B36" stroke-width="1.5" stroke-linecap="round" stroke-linejoin="round"/>
<path d="M11.6667 20.0001C12.5872 20.0001 13.3334 19.2539 13.3334 18.3334C13.3334 17.4129 12.5872 16.6667 11.6667 16.6667C10.7462 16.6667 10 17.4129 10 18.3334C10 19.2539 10.7462 20.0001 11.6667 20.0001Z" stroke="#212B36" stroke-width="1.5" stroke-linecap="round" stroke-linejoin="round"/>
<path d="M18.3334 18.889C19.2539 18.889 20.0001 18.1428 20.0001 17.2223C20.0001 16.3019 19.2539 15.5557 18.3334 15.5557C17.4129 15.5557 16.6667 16.3019 16.6667 17.2223C16.6667 18.1428 17.4129 18.889 18.3334 18.889Z" stroke="#212B36" stroke-width="1.5" stroke-linecap="round" stroke-linejoin="round"/>
</svg>
