<svg width="160" height="169" viewBox="0 0 160 169" fill="none" xmlns="http://www.w3.org/2000/svg">
<path d="M160 0L160 72C160 116.183 124.183 152 80 152V152C35.8172 152 -6.2706e-06 116.183 -4.33931e-06 72L-1.19209e-06 -6.99382e-06L160 0Z" fill="url(#paint0_linear_1250_2431)"/>
<path d="M35.7726 68.0491H123.076L123.849 79.6381H35L35.7726 68.0491Z" fill="white" stroke="#1A2E35" stroke-width="1.5"/>
<path d="M38.0859 79.6381H120.754L111.483 167.714H47.3571L38.0859 79.6381Z" fill="white" stroke="#1A2E35" stroke-width="1.5"/>
<path fill-rule="evenodd" clip-rule="evenodd" d="M75.736 56C68.7905 56 62.9264 61.1601 62.043 68.0491H95.2647C94.3812 61.1601 88.5172 56 81.5717 56H75.736ZM75.7004 61.8683C72.0295 61.8683 68.8296 64.3667 67.9393 67.928L67.909 68.0491H89.3941L89.3638 67.928C88.4735 64.3667 85.2736 61.8683 81.6027 61.8683H75.7004Z" fill="white"/>
<path d="M62.043 68.0491L61.2991 67.9537L61.1906 68.7991H62.043V68.0491ZM95.2647 68.0491V68.7991H96.117L96.0086 67.9537L95.2647 68.0491ZM67.9393 67.928L67.2117 67.7461L67.2117 67.7461L67.9393 67.928ZM67.909 68.0491L67.1814 67.8672L66.9485 68.7991H67.909V68.0491ZM89.3941 68.0491V68.7991H90.3547L90.1217 67.8672L89.3941 68.0491ZM89.3638 67.928L88.6362 68.1099L88.6362 68.11L89.3638 67.928ZM62.7869 68.1445C63.6223 61.6297 69.1678 56.75 75.736 56.75V55.25C68.4132 55.25 62.2305 60.6904 61.2991 67.9537L62.7869 68.1445ZM95.2647 67.2991H62.043V68.7991H95.2647V67.2991ZM81.5717 56.75C88.1398 56.75 93.6853 61.6297 94.5208 68.1445L96.0086 67.9537C95.0771 60.6904 88.8945 55.25 81.5717 55.25V56.75ZM75.736 56.75H81.5717V55.25H75.736V56.75ZM68.6669 68.1099C69.4738 64.8825 72.3737 62.6183 75.7004 62.6183V61.1183C71.6854 61.1183 68.1855 63.8509 67.2117 67.7461L68.6669 68.1099ZM68.6366 68.231L68.6669 68.1099L67.2117 67.7461L67.1814 67.8672L68.6366 68.231ZM89.3941 67.2991H67.909V68.7991H89.3941V67.2991ZM88.6362 68.11L88.6665 68.231L90.1217 67.8672L90.0914 67.7461L88.6362 68.11ZM81.6027 62.6183C84.9295 62.6183 87.8293 64.8825 88.6362 68.1099L90.0914 67.7461C89.1176 63.8509 85.6178 61.1183 81.6027 61.1183V62.6183ZM75.7004 62.6183H81.6027V61.1183H75.7004V62.6183Z" fill="#1A2E35"/>
<rect x="75.9492" y="89.2956" width="6.95338" height="68.7612" rx="3.47669" fill="#ED4247"/>
<path d="M98.0732 92.4483C98.2336 90.6632 99.7297 89.2956 101.522 89.2956V89.2956C103.557 89.2956 105.153 91.0417 104.971 93.0683L99.4126 154.904C99.2521 156.689 97.756 158.057 95.9637 158.057V158.057C93.9289 158.057 92.3327 156.311 92.5149 154.284L98.0732 92.4483Z" fill="#ED4247"/>
<path d="M53.8821 93.0683C53.6999 91.0417 55.2961 89.2956 57.3309 89.2956V89.2956C59.1232 89.2956 60.6193 90.6632 60.7797 92.4483L66.338 154.284C66.5202 156.311 64.924 158.057 62.8892 158.057V158.057C61.0969 158.057 59.6008 156.689 59.4404 154.904L53.8821 93.0683Z" fill="#ED4247"/>
<circle cx="120.812" cy="73.8095" r="16.1905" fill="white" stroke="#1A2E35" stroke-width="1.5"/>
<path d="M120.812 83.5238C126.177 83.5238 130.526 79.1746 130.526 73.8095C130.526 68.4445 126.177 64.0952 120.812 64.0952C115.447 64.0952 111.098 68.4445 111.098 73.8095C111.098 79.1746 115.447 83.5238 120.812 83.5238Z" stroke="#ED4247" stroke-width="2" stroke-linecap="round" stroke-linejoin="round"/>
<path d="M120.812 69.9238V73.8095" stroke="#ED4247" stroke-width="2" stroke-linecap="round" stroke-linejoin="round"/>
<path d="M120.812 77.6952H120.822" stroke="#ED4247" stroke-width="2" stroke-linecap="round" stroke-linejoin="round"/>
<defs>
<linearGradient id="paint0_linear_1250_2431" x1="-1.14125e-05" y1="152" x2="-17.4499" y2="24.236" gradientUnits="userSpaceOnUse">
<stop stop-color="#E0208C"/>
<stop offset="1" stop-color="#FA6400"/>
</linearGradient>
</defs>
</svg>
