<svg width="200" height="176" viewBox="0 0 200 176" fill="none" xmlns="http://www.w3.org/2000/svg">
<path d="M0 0H120C164.183 0 200 35.8172 200 80C200 124.183 164.183 160 120 160H0V0Z" fill="url(#paint0_linear_1250_2432)"/>
<path d="M37.9544 51.8842H145.8L146.754 66.2H37L37.9544 51.8842Z" fill="white" stroke="#1A2E35" stroke-width="1.5"/>
<path d="M40.8125 66.2H142.932L131.479 175H52.2651L40.8125 66.2Z" fill="white" stroke="#1A2E35" stroke-width="1.5"/>
<path fill-rule="evenodd" clip-rule="evenodd" d="M86.3942 37C78.3445 37 71.5481 42.9805 70.5242 50.9648L70.4062 51.8842H111.445L111.327 50.9648C110.303 42.9805 103.507 37 95.4569 37H86.3942ZM85.8076 44.2491C82.1366 44.2491 78.9368 46.7475 78.0464 50.3088L77.6526 51.8842H104.193L103.799 50.3088C102.909 46.7475 99.7089 44.2491 96.0379 44.2491H85.8076Z" fill="white"/>
<path d="M70.5242 50.9648L69.7802 50.8694L70.5242 50.9648ZM70.4062 51.8842L69.6623 51.7888L69.5539 52.6342H70.4062V51.8842ZM111.445 51.8842V52.6342H112.297L112.189 51.7888L111.445 51.8842ZM111.327 50.9648L112.071 50.8694V50.8694L111.327 50.9648ZM78.0464 50.3088L77.3188 50.1269L78.0464 50.3088ZM77.6526 51.8842L76.925 51.7023L76.692 52.6342H77.6526V51.8842ZM104.193 51.8842V52.6342H105.154L104.921 51.7023L104.193 51.8842ZM103.799 50.3088L103.071 50.4907V50.4907L103.799 50.3088ZM71.2681 51.0602C72.244 43.4501 78.7218 37.75 86.3942 37.75V36.25C77.9671 36.25 70.8522 42.5108 69.7802 50.8694L71.2681 51.0602ZM71.1502 51.9796L71.2681 51.0602L69.7802 50.8694L69.6623 51.7888L71.1502 51.9796ZM111.445 51.1342H70.4062V52.6342H111.445V51.1342ZM110.583 51.0602L110.701 51.9796L112.189 51.7888L112.071 50.8694L110.583 51.0602ZM95.4569 37.75C103.129 37.75 109.607 43.4501 110.583 51.0602L112.071 50.8694C110.999 42.5108 103.884 36.25 95.4569 36.25V37.75ZM86.3942 37.75H95.4569V36.25H86.3942V37.75ZM78.774 50.4907C79.5809 47.2633 82.4808 44.9991 85.8076 44.9991V43.4991C81.7925 43.4991 78.2926 46.2317 77.3188 50.1269L78.774 50.4907ZM78.3802 52.0661L78.774 50.4907L77.3188 50.1269L76.925 51.7023L78.3802 52.0661ZM104.193 51.1342H77.6526V52.6342H104.193V51.1342ZM103.071 50.4907L103.465 52.0661L104.921 51.7023L104.527 50.1269L103.071 50.4907ZM96.0379 44.9991C99.3647 44.9991 102.265 47.2633 103.071 50.4907L104.527 50.1269C103.553 46.2317 100.053 43.4991 96.0379 43.4991V44.9991ZM85.8076 44.9991H96.0379V43.4991H85.8076V44.9991Z" fill="#1A2E35"/>
<rect x="87.5859" y="78.1298" width="8.58947" height="84.9404" rx="4.29474" fill="#ED4247"/>
<path d="M114.914 82.0244C115.112 79.8193 116.96 78.1298 119.174 78.1298C121.688 78.1298 123.66 80.2868 123.435 82.7903L116.568 159.176C116.37 161.381 114.522 163.07 112.308 163.07C109.795 163.07 107.823 160.913 108.048 158.41L114.914 82.0244Z" fill="#ED4247"/>
<path d="M60.3252 82.7903C60.1001 80.2868 62.0719 78.1298 64.5855 78.1298C66.7995 78.1298 68.6476 79.8193 68.8458 82.0244L75.7119 158.41C75.9369 160.913 73.9652 163.07 71.4516 163.07C69.2376 163.07 67.3895 161.381 67.1913 159.176L60.3252 82.7903Z" fill="#ED4247"/>
<circle cx="143" cy="59" r="20" fill="white" stroke="#1A2E35" stroke-width="1.5"/>
<path d="M143 71C149.627 71 155 65.6274 155 59C155 52.3726 149.627 47 143 47C136.373 47 131 52.3726 131 59C131 65.6274 136.373 71 143 71Z" stroke="#ED4247" stroke-width="2" stroke-linecap="round" stroke-linejoin="round"/>
<path d="M143 54.2V59" stroke="#ED4247" stroke-width="2" stroke-linecap="round" stroke-linejoin="round"/>
<path d="M143 63.8H143.012" stroke="#ED4247" stroke-width="2" stroke-linecap="round" stroke-linejoin="round"/>
<defs>
<linearGradient id="paint0_linear_1250_2432" x1="200" y1="160" x2="34.1111" y2="189.812" gradientUnits="userSpaceOnUse">
<stop stop-color="#E0208C"/>
<stop offset="1" stop-color="#FA6400"/>
</linearGradient>
</defs>
</svg>
