<svg width="24" height="24" viewBox="0 0 24 24" fill="none" xmlns="http://www.w3.org/2000/svg">
<path d="M9.33398 17.3335V5.7778L20.0008 4V15.5557" stroke="#1B1B1B" stroke-width="1.5" stroke-linecap="round" stroke-linejoin="round"/>
<path d="M6.6667 19.9999C8.13947 19.9999 9.33339 18.806 9.33339 17.3332C9.33339 15.8604 8.13947 14.6665 6.6667 14.6665C5.19392 14.6665 4 15.8604 4 17.3332C4 18.806 5.19392 19.9999 6.6667 19.9999Z" stroke="#1B1B1B" stroke-width="1.5" stroke-linecap="round" stroke-linejoin="round"/>
<path d="M17.3327 18.2226C18.8055 18.2226 19.9994 17.0286 19.9994 15.5559C19.9994 14.0831 18.8055 12.8892 17.3327 12.8892C15.8599 12.8892 14.666 14.0831 14.666 15.5559C14.666 17.0286 15.8599 18.2226 17.3327 18.2226Z" stroke="#1B1B1B" stroke-width="1.5" stroke-linecap="round" stroke-linejoin="round"/>
</svg>
