<svg width="24" height="24" viewBox="0 0 24 24" fill="none" xmlns="http://www.w3.org/2000/svg">
<path d="M18 8V5.55556C18 5.143 17.8361 4.74733 17.5444 4.45561C17.2527 4.16389 16.857 4 16.4444 4H5.55556C5.143 4 4.74733 4.16389 4.45561 4.45561C4.16389 4.74733 4 5.143 4 5.55556V18L7 15H11" stroke="#1B1B1B" stroke-width="1.5" stroke-linejoin="round"/>
<path d="M16 15C17.1046 15 18 14.1046 18 13C18 11.8954 17.1046 11 16 11C14.8954 11 14 11.8954 14 13C14 14.1046 14.8954 15 16 15Z" stroke="#1B1B1B" stroke-width="1.5"/>
<path d="M20 20V20C20 18.6193 18.8807 17.5 17.5 17.5H14.5C13.1193 17.5 12 18.6193 12 20V20" stroke="#1B1B1B" stroke-width="1.5"/>
</svg>
