<svg width="32" height="32" viewBox="0 0 32 32" fill="none" xmlns="http://www.w3.org/2000/svg">
<path d="M25.0204 8.31163C24.4991 7.79011 23.8802 7.37641 23.199 7.09416C22.5178 6.8119 21.7877 6.66663 21.0503 6.66663C20.3129 6.66663 19.5828 6.8119 18.9016 7.09416C18.2204 7.37641 17.6015 7.79011 17.0802 8.31163L15.9984 9.39344L14.9166 8.31163C13.8637 7.2587 12.4356 6.66717 10.9465 6.66717C9.45748 6.66717 8.02941 7.2587 6.97648 8.31163C5.92356 9.36455 5.33203 10.7926 5.33203 12.2817C5.33203 13.7707 5.92356 15.1988 6.97648 16.2517L8.0583 17.3336L15.9984 25.2737L23.9385 17.3336L25.0204 16.2517C25.5419 15.7305 25.9556 15.1116 26.2378 14.4304C26.5201 13.7492 26.6654 13.019 26.6654 12.2817C26.6654 11.5443 26.5201 10.8142 26.2378 10.133C25.9556 9.4518 25.5419 8.83289 25.0204 8.31163Z" fill="url(#paint0_linear_1048_97940)" stroke="url(#paint1_linear_1048_97940)" stroke-width="1.5" stroke-linecap="round" stroke-linejoin="round"/>
<defs>
<linearGradient id="paint0_linear_1048_97940" x1="26.6654" y1="25.2737" x2="8.88224" y2="28.2049" gradientUnits="userSpaceOnUse">
<stop stop-color="#FA6400"/>
<stop offset="1" stop-color="#E0208C"/>
</linearGradient>
<linearGradient id="paint1_linear_1048_97940" x1="26.6654" y1="25.2737" x2="8.88224" y2="28.2049" gradientUnits="userSpaceOnUse">
<stop stop-color="#FA6400"/>
<stop offset="1" stop-color="#E0208C"/>
</linearGradient>
</defs>
</svg>
