<svg width="25" height="24" viewBox="0 0 25 24" fill="none" xmlns="http://www.w3.org/2000/svg">
<path d="M12.7246 2.16664L15.4574 7.75538C15.7108 8.27363 16.2033 8.63369 16.7741 8.7179L22.9023 9.62212C23.1066 9.65225 23.1883 9.90296 23.0411 10.0477L18.5964 14.4179C18.1883 14.8191 18.0022 15.3946 18.098 15.9588L19.1451 22.1218C19.1799 22.3264 18.9647 22.4818 18.7815 22.3845L13.3206 19.4855C12.8074 19.2131 12.1926 19.2131 11.6794 19.4855L6.21854 22.3845C6.03528 22.4818 5.8201 22.3264 5.85485 22.1218L6.90197 15.9588C6.99784 15.3946 6.81173 14.8191 6.40362 14.4179L1.95887 10.0477C1.81166 9.90296 1.89341 9.65225 2.09766 9.62212L8.22595 8.7179C8.79666 8.63369 9.2892 8.27363 9.54262 7.75538L12.2754 2.16664C12.3668 1.97974 12.6332 1.97973 12.7246 2.16664Z" stroke="url(#paint0_linear_1048_94334)" stroke-width="1.5"/>
<defs>
<linearGradient id="paint0_linear_1048_94334" x1="6.96136" y1="24.4531" x2="12.0805" y2="-2.85872" gradientUnits="userSpaceOnUse">
<stop stop-color="#E0208C"/>
<stop offset="1" stop-color="#FA6400"/>
</linearGradient>
</defs>
</svg>
