<svg width="32" height="31" viewBox="0 0 32 31" fill="none" xmlns="http://www.w3.org/2000/svg">
<path opacity="0.6" d="M16.1101 1.16664C16.2014 0.979737 16.4678 0.979733 16.5592 1.16664L20.5795 9.3884C20.8329 9.90665 21.3255 10.2667 21.8962 10.3509L30.9036 11.6799C31.1079 11.7101 31.1896 11.9608 31.0424 12.1055L24.5144 18.5241C24.1062 18.9253 23.9201 19.5008 24.016 20.0651L25.5548 29.1218C25.5895 29.3264 25.3744 29.4818 25.1911 29.3845L17.1552 25.1185C16.6421 24.8461 16.0272 24.8461 15.5141 25.1185L7.47818 29.3845C7.29491 29.4818 7.07973 29.3264 7.11449 29.1218L8.65327 20.0651C8.74914 19.5008 8.56303 18.9253 8.15492 18.5241L1.62684 12.1055C1.47963 11.9608 1.56138 11.7101 1.76563 11.6799L10.7731 10.3509C11.3438 10.2667 11.8363 9.90664 12.0898 9.3884L16.1101 1.16664Z" stroke="#ED4247"  stroke-width="1.5" stroke-linecap="round" stroke-linejoin="round"/>
</svg>
