<svg width="56" height="56" viewBox="0 0 56 56" fill="none" xmlns="http://www.w3.org/2000/svg">
<circle opacity="0.1" cx="28" cy="28" r="28" fill="#ED4247"/>
<path d="M38.1494 20.8506C37.5629 20.2639 36.8667 19.7985 36.1003 19.481C35.334 19.1634 34.5126 19 33.6831 19C32.8535 19 32.0321 19.1634 31.2658 19.481C30.4994 19.7985 29.8032 20.2639 29.2167 20.8506L27.9997 22.0677L26.7826 20.8506C25.5981 19.6661 23.9915 19.0006 22.3163 19.0006C20.6411 19.0006 19.0346 19.6661 17.85 20.8506C16.6655 22.0352 16 23.6417 16 25.3169C16 26.9921 16.6655 28.5987 17.85 29.7833L19.0671 31.0003L27.9997 39.9329L36.9323 31.0003L38.1494 29.7833C38.7361 29.1968 39.2015 28.5006 39.519 27.7342C39.8366 26.9679 40 26.1465 40 25.3169C40 24.4874 39.8366 23.666 39.519 22.8997C39.2015 22.1333 38.7361 21.4371 38.1494 20.8506V20.8506Z" stroke="#ED4247" stroke-width="2" stroke-linecap="round" stroke-linejoin="round"/>
</svg>
