<svg width="2" height="416" viewBox="0 0 2 416" fill="none" xmlns="http://www.w3.org/2000/svg">
<path opacity="0.3" fill-rule="evenodd" clip-rule="evenodd" d="M1.39892e-07 3.20036L0 0L2 -8.74228e-08L2 3.20036C2 3.75264 1.55228 4.20036 1 4.20036C0.447715 4.20036 1.64033e-07 3.75264 1.39892e-07 3.20036ZM1 15.0018C1.55229 15.0018 2 15.4495 2 16.0018L2 22.4025C2 22.9548 1.55229 23.4025 1 23.4025C0.447716 23.4025 1.00339e-06 22.9548 9.79245e-07 22.4025L6.99461e-07 16.0018C6.7532e-07 15.4495 0.447716 15.0018 1 15.0018ZM1 34.204C1.55229 34.204 2 34.6517 2 35.204L2 41.6047C2 42.157 1.55229 42.6047 1 42.6047C0.447717 42.6047 1.84274e-06 42.157 1.8186e-06 41.6047L1.53881e-06 35.204C1.51467e-06 34.6517 0.447717 34.204 1 34.204ZM1 53.4061C1.55229 53.4061 2 53.8538 2 54.4061L2 60.8068C2 61.3591 1.55229 61.8068 1 61.8068C0.447718 61.8068 2.68209e-06 61.3591 2.65795e-06 60.8068L2.37817e-06 54.4061C2.35403e-06 53.8538 0.447718 53.4061 1 53.4061ZM1 72.6083C1.55229 72.6083 2 73.056 2 73.6083L2 80.009C2 80.5613 1.55229 81.009 1 81.009C0.447719 81.009 3.52145e-06 80.5613 3.4973e-06 80.009L3.21752e-06 73.6083C3.19338e-06 73.056 0.447718 72.6083 1 72.6083ZM1 91.8104C1.55229 91.8104 2 92.2581 2 92.8104L2 99.2111C2 99.7634 1.55229 100.211 1 100.211C0.44772 100.211 4.3608e-06 99.7634 4.33666e-06 99.2111L4.05687e-06 92.8104C4.03273e-06 92.2581 0.447719 91.8104 1 91.8104ZM1 111.013C1.55229 111.013 2 111.46 2 112.013L2.00001 118.413C2.00001 118.966 1.55229 119.413 1.00001 119.413C0.44772 119.413 5.20015e-06 118.966 5.17601e-06 118.413L4.89623e-06 112.013C4.87208e-06 111.46 0.44772 111.013 1 111.013ZM1.00001 130.215C1.55229 130.215 2.00001 130.662 2.00001 131.215L2.00001 137.468C2.00001 138.02 1.55229 138.468 1.00001 138.468C0.447721 138.468 6.03304e-06 138.02 6.0089e-06 137.468L5.73558e-06 131.215C5.71144e-06 130.662 0.447721 130.215 1.00001 130.215ZM1.00001 148.677C1.55229 148.677 2.00001 149.125 2.00001 149.677L2.00001 155.782C2.00001 156.334 1.55229 156.782 1.00001 156.782C0.447722 156.782 6.83359e-06 156.334 6.80945e-06 155.782L6.5426e-06 149.677C6.51846e-06 149.125 0.447722 148.677 1.00001 148.677ZM1.00001 166.992C1.55229 166.992 2.00001 167.439 2.00001 167.992L2.00001 174.096C2.00001 174.649 1.55229 175.096 1.00001 175.096C0.447723 175.096 7.63414e-06 174.649 7.61e-06 174.096L7.34315e-06 167.992C7.31901e-06 167.439 0.447723 166.992 1.00001 166.992ZM1.00001 185.306C1.55229 185.306 2.00001 185.754 2.00001 186.306L2.00001 192.411C2.00001 192.963 1.55229 193.411 1.00001 193.411C0.447724 193.411 8.43469e-06 192.963 8.41055e-06 192.411L8.1437e-06 186.306C8.11956e-06 185.754 0.447723 185.306 1.00001 185.306ZM1.00001 203.621C1.55229 203.621 2.00001 204.068 2.00001 204.621L2.00001 210.725C2.00001 211.278 1.55229 211.725 1.00001 211.725C0.447724 211.725 9.23524e-06 211.278 9.2111e-06 210.725L8.94425e-06 204.621C8.92011e-06 204.068 0.447724 203.621 1.00001 203.621ZM1.00001 221.935C1.55229 221.935 2.00001 222.383 2.00001 222.935L2.00001 229.04C2.00001 229.592 1.55229 230.04 1.00001 230.04C0.447725 230.04 1.00358e-05 229.592 1.00117e-05 229.04L9.7448e-06 222.935C9.72066e-06 222.383 0.447725 221.935 1.00001 221.935ZM1.00001 240.249C1.5523 240.249 2.00001 240.697 2.00001 241.249L2.00001 247.354C2.00001 247.907 1.5523 248.354 1.00001 248.354C0.447726 248.354 1.08363e-05 247.907 1.08122e-05 247.354L1.05454e-05 241.249C1.05212e-05 240.697 0.447726 240.249 1.00001 240.249ZM1.00001 258.564C1.5523 258.564 2.00001 259.012 2.00001 259.564L2.00001 265.669C2.00001 266.221 1.5523 266.669 1.00001 266.669C0.447727 266.669 1.16369e-05 266.221 1.16128e-05 265.669L1.13459e-05 259.564C1.13218e-05 259.012 0.447727 258.564 1.00001 258.564ZM1.00001 276.878C1.5523 276.878 2.00001 277.326 2.00001 277.878L2.00001 283.983C2.00001 284.536 1.5523 284.983 1.00001 284.983C0.447728 284.983 1.24374e-05 284.536 1.24133e-05 283.983L1.21465e-05 277.878C1.21223e-05 277.326 0.447727 276.878 1.00001 276.878ZM1.00001 295.193C1.5523 295.193 2.00001 295.641 2.00001 296.193L2.00001 302.298C2.00001 302.85 1.5523 303.298 1.00001 303.298C0.447728 303.298 1.3238e-05 302.85 1.32139e-05 302.298L1.2947e-05 296.193C1.29229e-05 295.641 0.447728 295.193 1.00001 295.193ZM1.00001 313.507C1.5523 313.507 2.00001 313.955 2.00001 314.507L2.00001 320.612C2.00001 321.164 1.5523 321.612 1.00001 321.612C0.447729 321.612 1.40385e-05 321.164 1.40144e-05 320.612L1.37476e-05 314.507C1.37234e-05 313.955 0.447729 313.507 1.00001 313.507ZM1.00001 331.822C1.5523 331.822 2.00001 332.27 2.00001 332.822L2.00001 338.927C2.00001 339.479 1.5523 339.927 1.00001 339.927C0.44773 339.927 1.48391e-05 339.479 1.4815e-05 338.927L1.45481e-05 332.822C1.4524e-05 332.27 0.44773 331.822 1.00001 331.822ZM1.00002 350.136C1.5523 350.136 2.00002 350.584 2.00002 351.136L2.00002 357.623C2.00002 358.175 1.5523 358.623 1.00002 358.623C0.447731 358.623 1.56563e-05 358.175 1.56322e-05 357.623L1.53487e-05 351.136C1.53245e-05 350.584 0.447731 350.136 1.00002 350.136ZM1.00002 370.358C1.5523 370.358 2.00002 370.806 2.00002 371.358L2.00002 378.226C2.00002 378.779 1.5523 379.226 1.00002 379.226C0.447732 379.226 1.65569e-05 378.779 1.65328e-05 378.226L1.62326e-05 371.358C1.62085e-05 370.806 0.447731 370.358 1.00002 370.358ZM1.00002 390.962C1.5523 390.962 2.00002 391.41 2.00002 391.962L2.00002 398.83C2.00002 399.382 1.5523 399.83 1.00002 399.83C0.447733 399.83 1.74576e-05 399.382 1.74334e-05 398.83L1.71332e-05 391.962C1.71091e-05 391.41 0.447732 390.962 1.00002 390.962ZM1.00002 411.566C1.5523 411.566 2.00002 412.014 2.00002 412.566L2.00002 416L1.81839e-05 416L1.80338e-05 412.566C1.80097e-05 412.014 0.447733 411.566 1.00002 411.566Z" fill="#FFF"/>
</svg>
