<svg width="32" height="32" viewBox="0 0 32 32" fill="none" xmlns="http://www.w3.org/2000/svg">
<path d="M16 32C24.8366 32 32 24.8366 32 16C32 7.16344 24.8366 0 16 0C7.16345 0 0 7.16344 0 16C0 24.8366 7.16345 32 16 32Z" fill="url(#paint0_linear_369_2640)"/>
<mask id="mask0_369_2640" style="mask-type:alpha" maskUnits="userSpaceOnUse" x="0" y="0" width="32" height="32">
<path d="M16 32C24.8366 32 32 24.8366 32 16C32 7.16344 24.8366 0 16 0C7.16345 0 0 7.16344 0 16C0 24.8366 7.16345 32 16 32Z" fill="url(#paint1_radial_369_2640)"/>
</mask>
<g mask="url(#mask0_369_2640)">
<g filter="url(#filter0_d_369_2640)">
<path d="M11.7312 25.3707C12.1276 25.1574 12.5414 24.7863 12.8957 24.3262C13.6954 23.2876 13.9212 22.1878 13.4213 21.7683C12.9214 21.3485 11.9412 21.8154 11.1416 22.854C10.787 23.3142 10.5288 23.8155 10.4144 24.2656C10.2823 24.785 10.3536 25.1921 10.6157 25.4118C10.6664 25.4542 10.7222 25.488 10.7824 25.513C11.0334 25.6173 11.3627 25.5692 11.7312 25.3707ZM10.904 24.3775C10.9977 24.0085 11.2252 23.5713 11.5277 23.1782C11.8304 22.7852 12.1907 22.4594 12.5155 22.2844C12.7396 22.1638 12.9364 22.1224 13.0488 22.169C13.0652 22.1758 13.0797 22.1847 13.0926 22.1952C13.1915 22.2783 13.2072 22.511 13.1327 22.8024C13.0393 23.1716 12.8118 23.6087 12.5093 24.0018C12.2066 24.3947 11.8466 24.7205 11.5213 24.8956C11.2647 25.0337 11.0434 25.0681 10.9447 24.9848C10.8455 24.9019 10.8301 24.669 10.904 24.3775Z" fill="white"/>
<path d="M13.5571 24.8818C14.1064 24.1687 14.4755 23.3697 14.5967 22.6322C14.7263 21.843 14.5607 21.2093 14.1302 20.8479C13.6994 20.4865 13.071 20.4536 12.3609 20.7557C11.6969 21.0382 11.0288 21.5863 10.4796 22.2993C9.93399 23.0082 9.566 23.802 9.44238 24.5361C9.56086 24.8784 9.73258 25.1888 9.95925 25.4539C9.89374 25.2227 9.88646 24.9375 9.9397 24.6122C10.0456 23.968 10.3746 23.2617 10.8661 22.6235C11.3573 21.9856 11.947 21.4982 12.5272 21.2517C12.9516 21.0714 13.3243 21.0396 13.6042 21.1557C13.6764 21.1856 13.7422 21.2255 13.8013 21.2748C14.0894 21.5168 14.1941 21.9763 14.0965 22.5691C13.9906 23.2131 13.6619 23.9196 13.1704 24.5576C12.6792 25.1957 12.0893 25.6829 11.5093 25.9295C11.2475 26.041 11.0047 26.0955 10.7917 26.0937C11.1165 26.2479 11.4726 26.3311 11.845 26.3469C12.4527 26.0479 13.0549 25.5341 13.5571 24.8818Z" fill="white"/>
<path d="M14.7549 20.0366C14.1616 19.5387 13.316 19.4577 12.3737 19.8085C11.4698 20.1448 10.5762 20.8438 9.85809 21.777C9.64626 22.0522 9.45656 22.3389 9.29155 22.6313C9.23302 23.0563 9.2296 23.4698 9.28256 23.8584C9.48853 23.2591 9.81641 22.6572 10.2441 22.1012C10.8998 21.25 11.7075 20.615 12.518 20.3131C13.1106 20.0927 13.6471 20.0727 14.0717 20.2488C14.2008 20.3024 14.3192 20.3739 14.4257 20.4634C14.8838 20.8475 15.0792 21.5269 14.9763 22.3761C14.8684 23.2677 14.4483 24.2275 13.7925 25.0788C13.4195 25.5634 12.9972 25.9775 12.5529 26.3004C12.9516 26.2336 13.3582 26.0991 13.7587 25.901C13.9043 25.7439 14.0445 25.5777 14.1788 25.4031C14.8969 24.47 15.359 23.4089 15.4793 22.4152C15.6052 21.3788 15.348 20.5342 14.7549 20.0366Z" fill="white"/>
<path d="M22.7075 14.6474C22.7702 14.267 22.7856 13.8741 22.7432 13.4901C22.6981 13.0827 22.5879 12.6854 22.3995 12.3243C22.0707 11.6939 21.5254 11.2305 20.9767 10.797C19.7824 9.85285 19.6344 9.8273 18.9781 9.17854C18.6914 8.89533 18.2822 8.48623 17.8757 7.86716C17.4723 7.25279 17.2257 6.66683 17.0722 6.20063C17.061 6.14568 17.0437 6.09272 17.0222 6.04233C16.9999 5.97067 16.9807 5.90273 16.9631 5.83864C16.9564 5.86019 16.95 5.8816 16.9435 5.90287C16.8365 5.75114 16.684 5.66649 16.5182 5.59769C16.4515 5.57 16.3652 5.56543 16.2938 5.56543C16.2029 5.56543 16.1291 5.63923 16.1291 5.7303V19.3438L16.1296 19.3705C16.139 19.5412 16.1455 19.7415 16.1472 19.9565C15.9896 19.6095 15.7702 19.3138 15.4914 19.0799C14.7479 18.4558 13.684 18.3556 12.4961 18.7978C11.6633 19.1077 10.837 19.6606 10.097 20.3936C9.78927 20.911 9.56402 21.4493 9.42285 21.9817C9.50536 21.8627 9.59157 21.7448 9.68079 21.6286C10.5334 20.5217 11.5844 19.6955 12.6404 19.3026C13.4199 19.0125 14.1275 18.9871 14.6894 19.2202C14.8616 19.2914 15.0197 19.3871 15.1627 19.5067C15.7713 20.0173 16.0314 20.9148 15.896 22.0342C15.7552 23.1957 15.2085 24.4449 14.3562 25.5518C14.3548 25.5537 14.3532 25.5556 14.352 25.5576C14.7479 25.2931 15.1296 24.9656 15.4809 24.5792C16.206 23.9664 16.7181 22.7677 16.8991 21.8762C17.0664 21.0515 17.1331 20.1726 17.0881 19.3307V12.9575C18.3477 13.6452 19.5951 14.3785 20.7018 15.2961C21.415 15.8872 21.8373 16.7189 21.8128 17.652C21.7927 18.4375 21.5831 19.1654 21.3656 19.9127C21.3562 19.9452 21.3466 19.9786 21.3503 20.0121C21.3649 20.1448 21.5313 20.1339 21.6018 20.0587C21.7197 19.9329 21.7908 19.6998 21.8817 19.5499C21.9868 19.3771 22.0652 19.1981 22.14 19.0102C22.2786 18.6608 22.3933 18.3025 22.4541 17.931C22.5168 17.5505 22.5322 17.1576 22.4901 16.7736C22.4586 16.492 22.3962 16.2152 22.2985 15.9518C22.3317 15.878 22.3629 15.8031 22.3933 15.7266C22.5319 15.3771 22.6467 15.019 22.7075 14.6474ZM22.0663 14.3685C22.0582 14.687 22.0186 14.9959 21.9601 15.3003C21.6311 14.8212 21.1786 14.4405 20.7234 14.0805C19.529 13.1365 19.381 13.111 18.7247 12.4622C18.4381 12.1788 18.0285 11.7697 17.622 11.1507C17.4 10.8125 17.2259 10.4829 17.0881 10.1772V9.53611C18.4336 10.2642 19.774 11.0335 20.9553 12.0124C21.6936 12.6245 22.0917 13.3994 22.0663 14.3685Z" fill="white"/>
</g>
</g>
<defs>
<filter id="filter0_d_369_2640" x="5.24512" y="5.56543" width="21.522" height="28.7812" filterUnits="userSpaceOnUse" color-interpolation-filters="sRGB">
<feFlood flood-opacity="0" result="BackgroundImageFix"/>
<feColorMatrix in="SourceAlpha" type="matrix" values="0 0 0 0 0 0 0 0 0 0 0 0 0 0 0 0 0 0 127 0" result="hardAlpha"/>
<feOffset dy="4"/>
<feGaussianBlur stdDeviation="2"/>
<feComposite in2="hardAlpha" operator="out"/>
<feColorMatrix type="matrix" values="0 0 0 0 0 0 0 0 0 0 0 0 0 0 0 0 0 0 0.25 0"/>
<feBlend mode="normal" in2="BackgroundImageFix" result="effect1_dropShadow_369_2640"/>
<feBlend mode="normal" in="SourceGraphic" in2="effect1_dropShadow_369_2640" result="shape"/>
</filter>
<linearGradient id="paint0_linear_369_2640" x1="8.91055" y1="32.6041" x2="16" y2="-3.70679" gradientUnits="userSpaceOnUse">
<stop stop-color="#E0208C"/>
<stop offset="1" stop-color="#FA6400"/>
</linearGradient>
<radialGradient id="paint1_radial_369_2640" cx="0" cy="0" r="1" gradientUnits="userSpaceOnUse" gradientTransform="translate(16 16) scale(22.0941)">
<stop stop-color="#33658A"/>
<stop offset="1" stop-color="#2F4858"/>
</radialGradient>
</defs>
</svg>
