<svg width="24" height="24" viewBox="0 0 24 24" fill="none" xmlns="http://www.w3.org/2000/svg">
<path d="M18.0909 10.5455C18.0909 15.6364 11.5455 20 11.5455 20C11.5455 20 5 15.6364 5 10.5455C5 8.80949 5.68961 7.14463 6.91712 5.91712C8.14463 4.68961 9.80949 4 11.5455 4C13.2814 4 14.9463 4.68961 16.1738 5.91712C17.4013 7.14463 18.0909 8.80949 18.0909 10.5455Z" stroke="#ED4247" stroke-width="1.5" stroke-linecap="round" stroke-linejoin="round"/>
<path d="M11.5451 12.7274C12.7501 12.7274 13.7269 11.7506 13.7269 10.5456C13.7269 9.3406 12.7501 8.36377 11.5451 8.36377C10.3401 8.36377 9.36328 9.3406 9.36328 10.5456C9.36328 11.7506 10.3401 12.7274 11.5451 12.7274Z" stroke="#ED4247" stroke-width="1.5" stroke-linecap="round" stroke-linejoin="round"/>
</svg>
