<svg width="24" height="24" viewBox="0 0 24 24" fill="none" xmlns="http://www.w3.org/2000/svg">
<g opacity="0.6">
<path d="M8.875 12.875C9.35825 12.875 9.75 12.4832 9.75 12C9.75 11.5168 9.35825 11.125 8.875 11.125C8.39175 11.125 8 11.5168 8 12C8 12.4832 8.39175 12.875 8.875 12.875Z" stroke="#666666" stroke-width="1.5" stroke-linecap="round" stroke-linejoin="round"/>
<path d="M8.875 6.75C9.35825 6.75 9.75 6.35825 9.75 5.875C9.75 5.39175 9.35825 5 8.875 5C8.39175 5 8 5.39175 8 5.875C8 6.35825 8.39175 6.75 8.875 6.75Z" stroke="#666666" stroke-width="1.5" stroke-linecap="round" stroke-linejoin="round"/>
<path d="M8.875 19C9.35825 19 9.75 18.6082 9.75 18.125C9.75 17.6418 9.35825 17.25 8.875 17.25C8.39175 17.25 8 17.6418 8 18.125C8 18.6082 8.39175 19 8.875 19Z" stroke="#666666" stroke-width="1.5" stroke-linecap="round" stroke-linejoin="round"/>
<path d="M15.625 12.875C16.1082 12.875 16.5 12.4832 16.5 12C16.5 11.5168 16.1082 11.125 15.625 11.125C15.1418 11.125 14.75 11.5168 14.75 12C14.75 12.4832 15.1418 12.875 15.625 12.875Z" stroke="#666666" stroke-width="1.5" stroke-linecap="round" stroke-linejoin="round"/>
<path d="M15.625 6.75C16.1082 6.75 16.5 6.35825 16.5 5.875C16.5 5.39175 16.1082 5 15.625 5C15.1418 5 14.75 5.39175 14.75 5.875C14.75 6.35825 15.1418 6.75 15.625 6.75Z" stroke="#666666" stroke-width="1.5" stroke-linecap="round" stroke-linejoin="round"/>
<path d="M15.625 19C16.1082 19 16.5 18.6082 16.5 18.125C16.5 17.6418 16.1082 17.25 15.625 17.25C15.1418 17.25 14.75 17.6418 14.75 18.125C14.75 18.6082 15.1418 19 15.625 19Z" stroke="#666666" stroke-width="1.5" stroke-linecap="round" stroke-linejoin="round"/>
</g>
</svg>
