<svg width="40" height="40" viewBox="0 0 40 40" fill="none" xmlns="http://www.w3.org/2000/svg">
<path d="M16.0015 28.0003V10.6667L32.0017 8V25.3336" stroke="#ED4247" stroke-width="2" stroke-linecap="round" stroke-linejoin="round"/>
<path d="M12.0001 32.0001C14.2092 32.0001 16.0001 30.2092 16.0001 28.0001C16.0001 25.7909 14.2092 24 12.0001 24C9.79089 24 8 25.7909 8 28.0001C8 30.2092 9.79089 32.0001 12.0001 32.0001Z" stroke="#ED4247" stroke-width="2" stroke-linecap="round" stroke-linejoin="round"/>
<path d="M27.9999 29.3341C30.2091 29.3341 32 27.5432 32 25.334C32 23.1249 30.2091 21.334 27.9999 21.334C25.7908 21.334 23.9999 23.1249 23.9999 25.334C23.9999 27.5432 25.7908 29.3341 27.9999 29.3341Z" stroke="#ED4247" stroke-width="2" stroke-linecap="round" stroke-linejoin="round"/>
</svg>
