<svg width="24" height="24" viewBox="0 0 24 24" fill="none" xmlns="http://www.w3.org/2000/svg">
<path d="M11.2004 6.05585H11.9504C11.9504 5.76357 11.7806 5.49791 11.5153 5.37518C11.2501 5.25244 10.9377 5.29499 10.7149 5.4842L11.2004 6.05585ZM8 10.006C8.41421 10.006 8.75 9.67024 8.75 9.25603C8.75 8.84181 8.41421 8.50603 8 8.50603V10.006ZM4 9.25603V8.50603C3.58579 8.50603 3.25 8.84181 3.25 9.25603H4ZM4 14.0563H3.25C3.25 14.4705 3.58579 14.8063 4 14.8063V14.0563ZM7.20018 14.0563L7.6687 13.4706C7.53572 13.3643 7.37048 13.3063 7.20018 13.3063V14.0563ZM11.2004 17.2565L10.7319 17.8421C10.957 18.0222 11.2654 18.0573 11.5253 17.9325C11.7851 17.8076 11.9504 17.5448 11.9504 17.2565H11.2004ZM11.9504 13.1282C11.9504 12.714 11.6146 12.3782 11.2004 12.3782C10.7862 12.3782 10.4504 12.714 10.4504 13.1282H11.9504ZM8 8.50603H4V10.006H8V8.50603ZM3.25 9.25603V14.0563H4.75V9.25603H3.25ZM4 14.8063H7.20018V13.3063H4V14.8063ZM6.73166 14.6419L10.7319 17.8421L11.6689 16.6708L7.6687 13.4706L6.73166 14.6419ZM10.7149 5.4842L9.0145 6.92835L9.9855 8.07165L11.6859 6.6275L10.7149 5.4842ZM11.9504 9V6.05585H10.4504V9H11.9504ZM11.9504 17.2565V13.1282H10.4504V17.2565H11.9504Z" fill="white"/>
<path d="M18.1886 5.46975C17.8957 5.17681 17.4208 5.17674 17.1279 5.46959C16.835 5.76244 16.8349 6.23731 17.1277 6.53025L18.1886 5.46975ZM15.3644 8.29391C15.0715 8.00097 14.5967 8.0009 14.3037 8.29375C14.0108 8.5866 14.0107 9.06147 14.3036 9.35441L15.3644 8.29391ZM17.1277 6.53025C18.487 7.88991 19.2506 9.73376 19.2506 11.6563H20.7506C20.7506 9.33601 19.829 7.1107 18.1886 5.46975L17.1277 6.53025ZM14.3036 9.35441C14.9129 9.96392 15.2552 10.7905 15.2552 11.6523H16.7552C16.7552 10.3927 16.2549 9.18471 15.3644 8.29391L14.3036 9.35441ZM15.2552 11.6523C15.2552 12.0291 15.1898 12.3992 15.0652 12.7473L16.4775 13.2527C16.6596 12.7439 16.7552 12.203 16.7552 11.6523H15.2552ZM19.2506 11.6563C19.2506 13.0636 18.8414 14.4288 18.0889 15.5928L19.3486 16.4072C20.2567 15.0025 20.7506 13.3549 20.7506 11.6563H19.2506Z" fill="white"/>
<path d="M17 18L5 6" stroke="white" stroke-width="1.5" stroke-linecap="round" stroke-linejoin="round"/>
</svg>
