<svg width="25" height="24" viewBox="0 0 25 24" fill="none" xmlns="http://www.w3.org/2000/svg">
<path d="M11.6016 1.83718C11.9672 1.08955 13.0328 1.08955 13.3984 1.83718L16.1311 7.42592C16.276 7.72206 16.5574 7.92781 16.8835 7.97593L23.0118 8.88015C23.8288 9.00069 24.1558 10.0035 23.5669 10.5825L19.1222 14.9527C18.889 15.1819 18.7827 15.5108 18.8374 15.8332L19.8846 21.9962C20.0236 22.8145 19.1629 23.4361 18.4298 23.047L12.9689 20.148C12.6757 19.9923 12.3243 19.9923 12.0311 20.148L6.57021 23.047C5.83714 23.4361 4.97643 22.8145 5.11545 21.9962L6.16257 15.8332C6.21735 15.5108 6.111 15.1819 5.87779 14.9527L1.43305 10.5825C0.844182 10.0035 1.1712 9.00069 1.98818 8.88015L8.11647 7.97593C8.44259 7.92781 8.72405 7.72206 8.86885 7.42592L11.6016 1.83718Z" fill="url(#paint0_linear_1048_94332)"/>
<defs>
<linearGradient id="paint0_linear_1048_94332" x1="6.96136" y1="24.4531" x2="12.0805" y2="-2.85872" gradientUnits="userSpaceOnUse">
<stop stop-color="#E0208C"/>
<stop offset="1" stop-color="#FA6400"/>
</linearGradient>
</defs>
</svg>
