<svg width="56" height="56" viewBox="0 0 56 56" fill="none" xmlns="http://www.w3.org/2000/svg">
<circle opacity="0.1" cx="28" cy="28" r="28" fill="#ED4247"/>
<path d="M24.002 36.0001V18.6667L40.002 16V33.3334" stroke="#ED4247" stroke-width="2" stroke-linecap="round" stroke-linejoin="round"/>
<path d="M20 40C22.2092 40 24 38.2092 24 36C24 33.7909 22.2092 32 20 32C17.7909 32 16 33.7909 16 36C16 38.2092 17.7909 40 20 40Z" stroke="#ED4247" stroke-width="2" stroke-linecap="round" stroke-linejoin="round"/>
<path d="M36 37.334C38.2092 37.334 40 35.5431 40 33.334C40 31.1249 38.2092 29.334 36 29.334C33.7909 29.334 32 31.1249 32 33.334C32 35.5431 33.7909 37.334 36 37.334Z" stroke="#ED4247" stroke-width="2" stroke-linecap="round" stroke-linejoin="round"/>
</svg>
