<svg width="16" height="16" viewBox="0 0 16 16" fill="none" xmlns="http://www.w3.org/2000/svg">
<g clip-path="url(#clip0_933_18569)">
<path d="M7.51549 1.81663C7.88233 1.07346 8.94207 1.07346 9.3089 1.81663L10.7791 4.79513C10.9247 5.08997 11.2058 5.29443 11.5312 5.34199L14.8206 5.82278C15.6405 5.94263 15.9673 6.95047 15.3737 7.52863L12.9951 9.84542C12.7592 10.0752 12.6515 10.4063 12.7072 10.7308L13.2684 14.0026C13.4085 14.8196 12.5509 15.4426 11.8173 15.0567L8.87765 13.5108C8.58627 13.3576 8.23813 13.3576 7.94675 13.5108L5.00709 15.0567C4.27346 15.4426 3.41591 14.8196 3.55603 14.0026L4.11719 10.7308C4.17285 10.4063 4.06518 10.0752 3.82931 9.84542L1.45068 7.52863C0.857085 6.95047 1.18387 5.94263 2.00378 5.82278L5.29319 5.34199C5.61855 5.29443 5.89973 5.08997 6.04527 4.79513L7.51549 1.81663Z" fill="url(#paint0_linear_933_18569)"/>
</g>
<defs>
<linearGradient id="paint0_linear_933_18569" x1="4.68483" y1="16.302" x2="8.06774" y2="-1.91735" gradientUnits="userSpaceOnUse">
<stop stop-color="#E0208C"/>
<stop offset="1" stop-color="#FA6400"/>
</linearGradient>
<clipPath id="clip0_933_18569">
<rect width="16" height="16" fill="white"/>
</clipPath>
</defs>
</svg>
