<svg width="16" height="16" viewBox="0 0 16 16" fill="none" xmlns="http://www.w3.org/2000/svg">
<g clip-path="url(#clip0_933_18629)">
<path opacity="0.6" d="M8.18802 2.1486C8.27973 1.96281 8.54467 1.96281 8.63637 2.1486L10.1066 5.12709C10.3613 5.64308 10.8534 6.00088 11.4227 6.0841L14.7121 6.5649C14.9171 6.59486 14.9988 6.84682 14.8504 6.99136L12.4718 9.30815C12.059 9.71019 11.8706 10.2897 11.968 10.8576L12.5292 14.1294C12.5642 14.3337 12.3498 14.4894 12.1664 14.3929L9.22674 12.847C8.71682 12.5788 8.10758 12.5788 7.59766 12.847L4.658 14.3929C4.4746 14.4894 4.26021 14.3337 4.29524 14.1294L4.85639 10.8576C4.9538 10.2897 4.76539 9.71019 4.35261 9.30815L1.97398 6.99136C1.82558 6.84682 1.90727 6.59486 2.11225 6.5649L5.40167 6.0841C5.97104 6.00088 6.46311 5.64308 6.7178 5.12709L8.18802 2.1486Z" stroke="#9E9E9E" stroke-width="1.5" stroke-linecap="round" stroke-linejoin="round"/>
</g>
<defs>
<clipPath id="clip0_933_18629">
<rect width="16" height="16" fill="white"/>
</clipPath>
</defs>
</svg>
