<svg width="160" height="168" viewBox="0 0 160 168" fill="none" xmlns="http://www.w3.org/2000/svg">
<path d="M160 0L160 88C160 132.183 124.183 168 80 168C35.8172 168 -5.77789e-06 132.183 -3.8466e-06 88L0 -6.99382e-06L160 0Z" fill="url(#paint0_linear_2426_2393)"/>
<path d="M118.664 86.6667C118.664 89.5818 114.53 91.9927 113.91 94.7201C113.27 97.5363 115.935 101.5 114.71 104.041C113.465 106.623 108.695 107.002 106.925 109.22C105.147 111.45 105.832 116.186 103.605 117.966C101.388 119.737 96.9292 118.021 94.3487 119.267C91.8099 120.493 90.3794 125.064 87.5656 125.704C84.8405 126.324 81.5768 122.841 78.6641 122.841C75.7514 122.841 72.4878 126.324 69.7626 125.704C66.9486 125.064 65.5179 120.493 62.9793 119.267C60.3987 118.021 55.9394 119.737 53.7228 117.966C51.4954 116.186 52.1812 111.449 50.4028 109.22C48.6329 107.002 43.8626 106.623 42.6177 104.041C41.3929 101.5 44.0577 97.5363 43.418 94.7201C42.7987 91.9927 38.6641 89.5818 38.6641 86.6667C38.6641 83.7516 42.7985 81.3407 43.418 78.6132C44.0577 75.797 41.393 71.8335 42.6179 69.2926C43.8629 66.7099 48.633 66.3315 50.4029 64.113C52.1815 61.8838 51.4957 57.1473 53.7231 55.3673C55.9397 53.5959 60.3988 55.3124 62.9795 54.0663C65.5182 52.8406 66.9486 48.2695 69.7626 47.6295C72.4877 47.0095 75.7512 50.4927 78.6641 50.4927C81.5768 50.4927 84.8403 47.0095 87.5656 47.6294C90.3796 48.2695 91.8102 52.8406 94.3488 54.0663C96.9295 55.3124 101.389 53.5959 103.605 55.3673C105.833 57.1473 105.147 61.8838 106.925 64.113C108.695 66.3313 113.465 66.7099 114.71 69.2926C115.935 71.8334 113.27 75.7968 113.91 78.6129C114.53 81.3407 118.664 83.7516 118.664 86.6667Z" fill="white" stroke="#1A2E35" stroke-width="1.5"/>
<path d="M96.4458 74.2222L73.2235 99.1111L62.668 87.7979" stroke="url(#paint1_linear_2426_2393)" stroke-width="8" stroke-linecap="round" stroke-linejoin="round"/>
<path d="M129.336 88.889H140.003" stroke="white" stroke-width="3" stroke-linecap="round"/>
<path d="M20 88.889H30.6667" stroke="white" stroke-width="3" stroke-linecap="round"/>
<path d="M80.4453 28L80.4453 38.6667" stroke="white" stroke-width="3" stroke-linecap="round"/>
<path d="M80.4453 137.333L80.4453 148" stroke="white" stroke-width="3" stroke-linecap="round"/>
<path d="M41.5508 118.975L33.3346 125.777" stroke="white" stroke-width="3" stroke-linecap="round"/>
<path d="M118.668 118.667L126.884 125.469" stroke="white" stroke-width="3" stroke-linecap="round"/>
<path d="M33.3359 50.2223L41.5521 57.0246" stroke="white" stroke-width="3" stroke-linecap="round"/>
<path d="M127.328 50.9758L119.112 57.7781" stroke="white" stroke-width="3" stroke-linecap="round"/>
<defs>
<linearGradient id="paint0_linear_2426_2393" x1="-1.21119e-05" y1="168" x2="-21.2308" y2="27.3579" gradientUnits="userSpaceOnUse">
<stop stop-color="#E0208C"/>
<stop offset="1" stop-color="#FA6400"/>
</linearGradient>
<linearGradient id="paint1_linear_2426_2393" x1="45.7791" y1="86.6666" x2="69.5509" y2="118.928" gradientUnits="userSpaceOnUse">
<stop stop-color="#F96A03"/>
<stop offset="1" stop-color="#E32A68"/>
</linearGradient>
</defs>
</svg>
