<svg width="200" height="160" viewBox="0 0 200 160" fill="none" xmlns="http://www.w3.org/2000/svg">
<path d="M0 0H120C164.183 0 200 35.8172 200 80C200 124.183 164.183 160 120 160H0V0Z" fill="url(#paint0_linear_2426_2359)"/>
<path d="M158.664 78.6666C158.664 81.5818 154.53 83.9927 153.91 86.72C153.27 89.5363 155.935 93.4999 154.71 96.0406C153.465 98.6234 148.695 99.0019 146.925 101.22C145.147 103.45 145.832 108.186 143.605 109.966C141.388 111.737 136.929 110.021 134.349 111.267C131.81 112.493 130.379 117.064 127.566 117.704C124.84 118.324 121.577 114.841 118.664 114.841C115.751 114.841 112.488 118.324 109.763 117.704C106.949 117.064 105.518 112.493 102.979 111.267C100.399 110.021 95.9394 111.737 93.7228 109.966C91.4954 108.186 92.1812 103.449 90.4028 101.22C88.6329 99.0018 83.8626 98.6232 82.6177 96.0405C81.3929 93.4997 84.0577 89.5363 83.418 86.72C82.7987 83.9927 78.6641 81.5818 78.6641 78.6666C78.6641 75.7516 82.7985 73.3406 83.418 70.6132C84.0577 67.7969 81.393 63.8335 82.6179 61.2925C83.8629 58.7098 88.633 58.3314 90.4029 56.1129C92.1815 53.8837 91.4957 49.1473 93.7231 47.3672C95.9397 45.5959 100.399 47.3123 102.979 46.0663C105.518 44.8406 106.949 40.2695 109.763 39.6295C112.488 39.0095 115.751 42.4927 118.664 42.4927C121.577 42.4927 124.84 39.0095 127.566 39.6293C130.38 40.2695 131.81 44.8406 134.349 46.0663C136.929 47.3123 141.389 45.5959 143.605 47.3672C145.833 49.1473 145.147 53.8837 146.925 56.1129C148.695 58.3313 153.465 58.7098 154.71 61.2925C155.935 63.8333 153.27 67.7968 153.91 70.6129C154.53 73.3406 158.664 75.7516 158.664 78.6666Z" fill="white" stroke="#1A2E35" stroke-width="1.5"/>
<path d="M136.446 66.2222L113.224 91.1111L102.668 79.7979" stroke="url(#paint1_linear_2426_2359)" stroke-width="8" stroke-linecap="round" stroke-linejoin="round"/>
<path d="M169.336 80.889H180.003" stroke="white" stroke-width="3" stroke-linecap="round"/>
<path d="M60 80.889H70.6667" stroke="white" stroke-width="3" stroke-linecap="round"/>
<path d="M120.445 20L120.445 30.6667" stroke="white" stroke-width="3" stroke-linecap="round"/>
<path d="M120.445 129.333L120.445 140" stroke="white" stroke-width="3" stroke-linecap="round"/>
<path d="M81.5508 110.975L73.3346 117.777" stroke="white" stroke-width="3" stroke-linecap="round"/>
<path d="M158.668 110.667L166.884 117.469" stroke="white" stroke-width="3" stroke-linecap="round"/>
<path d="M73.3359 42.2223L81.5521 49.0246" stroke="white" stroke-width="3" stroke-linecap="round"/>
<path d="M167.328 42.9757L159.112 49.7781" stroke="white" stroke-width="3" stroke-linecap="round"/>
<defs>
<linearGradient id="paint0_linear_2426_2359" x1="200" y1="160" x2="34.1111" y2="189.812" gradientUnits="userSpaceOnUse">
<stop stop-color="#E0208C"/>
<stop offset="1" stop-color="#FA6400"/>
</linearGradient>
<linearGradient id="paint1_linear_2426_2359" x1="85.7791" y1="78.6666" x2="109.551" y2="110.928" gradientUnits="userSpaceOnUse">
<stop stop-color="#F96A03"/>
<stop offset="1" stop-color="#E32A68"/>
</linearGradient>
</defs>
</svg>
