<svg width="2" height="424" viewBox="0 0 2 424" fill="none" xmlns="http://www.w3.org/2000/svg">
<path opacity="0.1" d="M0 2.85417C0 3.40645 0.447715 3.85417 1 3.85417C1.55228 3.85417 2 3.40645 2 2.85417H0ZM2 14.2708C2 13.7185 1.55228 13.2708 1 13.2708C0.447715 13.2708 0 13.7185 0 14.2708H2ZM0 19.9792C0 20.5315 0.447715 20.9792 1 20.9792C1.55228 20.9792 2 20.5315 2 19.9792H0ZM2 31.3958C2 30.8436 1.55228 30.3958 1 30.3958C0.447715 30.3958 0 30.8436 0 31.3958H2ZM0 37.1042C0 37.6565 0.447715 38.1042 1 38.1042C1.55228 38.1042 2 37.6565 2 37.1042H0ZM2 48.5208C2 47.9686 1.55228 47.5208 1 47.5208C0.447715 47.5208 0 47.9686 0 48.5208H2ZM0 54.2292C0 54.7815 0.447715 55.2292 1 55.2292C1.55228 55.2292 2 54.7815 2 54.2292H0ZM2 65.6458C2 65.0936 1.55228 64.6458 1 64.6458C0.447715 64.6458 0 65.0936 0 65.6458H2ZM0 71.3542C0 71.9065 0.447715 72.3542 1 72.3542C1.55228 72.3542 2 71.9065 2 71.3542H0ZM2 82.7708C2 82.2186 1.55228 81.7708 1 81.7708C0.447715 81.7708 0 82.2186 0 82.7708H2ZM0 88.4792C0 89.0315 0.447715 89.4792 1 89.4792C1.55228 89.4792 2 89.0315 2 88.4792H0ZM2 99.8958C2 99.3436 1.55228 98.8958 1 98.8958C0.447715 98.8958 0 99.3436 0 99.8958H2ZM0 105.604C0 106.156 0.447715 106.604 1 106.604C1.55228 106.604 2 106.156 2 105.604H0ZM2 117.021C2 116.469 1.55228 116.021 1 116.021C0.447715 116.021 0 116.469 0 117.021H2ZM0 122.729C0 123.281 0.447715 123.729 1 123.729C1.55228 123.729 2 123.281 2 122.729H0ZM2 134.146C2 133.594 1.55228 133.146 1 133.146C0.447715 133.146 0 133.594 0 134.146H2ZM0 140.111C0 140.663 0.447715 141.111 1 141.111C1.55228 141.111 2 140.663 2 140.111H0ZM2 152.556C2 152.003 1.55228 151.556 1 151.556C0.447715 151.556 0 152.003 0 152.556H2ZM0 158.778C0 159.33 0.447715 159.778 1 159.778C1.55228 159.778 2 159.33 2 158.778H0ZM2 171.222C2 170.67 1.55228 170.222 1 170.222C0.447715 170.222 0 170.67 0 171.222H2ZM0 177.444C0 177.997 0.447715 178.444 1 178.444C1.55228 178.444 2 177.997 2 177.444H0ZM2 189.889C2 189.337 1.55228 188.889 1 188.889C0.447715 188.889 0 189.337 0 189.889H2ZM0 196.111C0 196.663 0.447715 197.111 1 197.111C1.55228 197.111 2 196.663 2 196.111H0ZM2 208.556C2 208.003 1.55228 207.556 1 207.556C0.447715 207.556 0 208.003 0 208.556H2ZM0 214.778C0 215.33 0.447715 215.778 1 215.778C1.55228 215.778 2 215.33 2 214.778H0ZM2 227.222C2 226.67 1.55228 226.222 1 226.222C0.447715 226.222 0 226.67 0 227.222H2ZM0 233.444C0 233.997 0.447715 234.444 1 234.444C1.55228 234.444 2 233.997 2 233.444H0ZM2 245.889C2 245.337 1.55228 244.889 1 244.889C0.447715 244.889 0 245.337 0 245.889H2ZM0 252.111C0 252.663 0.447715 253.111 1 253.111C1.55228 253.111 2 252.663 2 252.111H0ZM2 264.556C2 264.003 1.55228 263.556 1 263.556C0.447715 263.556 0 264.003 0 264.556H2ZM0 270.778C0 271.33 0.447715 271.778 1 271.778C1.55228 271.778 2 271.33 2 270.778H0ZM2 283.222C2 282.67 1.55228 282.222 1 282.222C0.447715 282.222 0 282.67 0 283.222H2ZM0 289.444C0 289.997 0.447715 290.444 1 290.444C1.55228 290.444 2 289.997 2 289.444H0ZM2 301.889C2 301.337 1.55228 300.889 1 300.889C0.447715 300.889 0 301.337 0 301.889H2ZM0 308.111C0 308.663 0.447715 309.111 1 309.111C1.55228 309.111 2 308.663 2 308.111H0ZM2 320.556C2 320.003 1.55228 319.556 1 319.556C0.447715 319.556 0 320.003 0 320.556H2ZM0 326.778C0 327.33 0.447715 327.778 1 327.778C1.55228 327.778 2 327.33 2 326.778H0ZM2 339.222C2 338.67 1.55228 338.222 1 338.222C0.447715 338.222 0 338.67 0 339.222H2ZM0 345.444C0 345.997 0.447715 346.444 1 346.444C1.55228 346.444 2 345.997 2 345.444H0ZM2 357.889C2 357.337 1.55228 356.889 1 356.889C0.447715 356.889 0 357.337 0 357.889H2ZM0 363.625C0 364.177 0.447715 364.625 1 364.625C1.55228 364.625 2 364.177 2 363.625H0ZM2 374.125C2 373.573 1.55228 373.125 1 373.125C0.447715 373.125 0 373.573 0 374.125H2ZM0 379.375C0 379.927 0.447715 380.375 1 380.375C1.55228 380.375 2 379.927 2 379.375H0ZM2 389.875C2 389.323 1.55228 388.875 1 388.875C0.447715 388.875 0 389.323 0 389.875H2ZM0 395.125C0 395.677 0.447715 396.125 1 396.125C1.55228 396.125 2 395.677 2 395.125H0ZM2 405.625C2 405.073 1.55228 404.625 1 404.625C0.447715 404.625 0 405.073 0 405.625H2ZM0 410.875C0 411.427 0.447715 411.875 1 411.875C1.55228 411.875 2 411.427 2 410.875H0ZM2 421.375C2 420.823 1.55228 420.375 1 420.375C0.447715 420.375 0 420.823 0 421.375H2ZM0 0V2.85417H2V0H0ZM0 14.2708V19.9792H2V14.2708H0ZM0 31.3958V37.1042H2V31.3958H0ZM0 48.5208V54.2292H2V48.5208H0ZM0 65.6458V71.3542H2V65.6458H0ZM0 82.7708V88.4792H2V82.7708H0ZM0 99.8958V105.604H2V99.8958H0ZM0 117.021V122.729H2V117.021H0ZM0 134.146V137H2V134.146H0ZM0 137V140.111H2V137H0ZM0 152.556V158.778H2V152.556H0ZM0 171.222V177.444H2V171.222H0ZM0 189.889V196.111H2V189.889H0ZM0 208.556V214.778H2V208.556H0ZM0 227.222V233.444H2V227.222H0ZM0 245.889V252.111H2V245.889H0ZM0 264.556V270.778H2V264.556H0ZM0 283.222V289.444H2V283.222H0ZM0 301.889V308.111H2V301.889H0ZM0 320.556V326.778H2V320.556H0ZM0 339.222V345.444H2V339.222H0ZM0 357.889V361H2V357.889H0ZM0 361V363.625H2V361H0ZM0 374.125V379.375H2V374.125H0ZM0 389.875V395.125H2V389.875H0ZM0 405.625V410.875H2V405.625H0ZM0 421.375V424H2V421.375H0Z" fill="#1B1B1B"/>
</svg>
