<svg width="24" height="24" viewBox="0 0 24 24" fill="none" xmlns="http://www.w3.org/2000/svg">
<path d="M17.6973 8.06089C17.3612 7.72455 16.962 7.45775 16.5227 7.27572C16.0834 7.09369 15.6125 7 15.137 7C14.6614 7 14.1906 7.09369 13.7512 7.27572C13.3119 7.45775 12.9128 7.72455 12.5766 8.06089L11.8789 8.75857L11.1813 8.06089C10.5022 7.38184 9.58121 7.00035 8.62089 7.00035C7.66057 7.00035 6.73958 7.38184 6.06054 8.06089C5.38149 8.73994 5 9.66092 5 10.6212C5 11.5816 5.38149 12.5026 6.06054 13.1816L6.75822 13.8793L11.8789 19L16.9996 13.8793L17.6973 13.1816C18.0337 12.8454 18.3005 12.4463 18.4825 12.007C18.6645 11.5677 18.7582 11.0968 18.7582 10.6212C18.7582 10.1457 18.6645 9.67484 18.4825 9.23552C18.3005 8.79621 18.0337 8.39706 17.6973 8.06089V8.06089Z" stroke="#212121" stroke-width="1.5" stroke-linecap="round" stroke-linejoin="round"/>
</svg>
