<svg width="40" height="40" viewBox="0 0 40 40" fill="none" xmlns="http://www.w3.org/2000/svg">
<rect x="0.75" y="0.75" width="38.5" height="38.5" rx="19.25" stroke="#1B1B1B" stroke-width="1.5"/>
<path d="M18.397 20.8052C18.7428 21.2676 19.1841 21.6502 19.6908 21.927C20.1975 22.2039 20.7578 22.3685 21.3338 22.4097C21.9097 22.451 22.4878 22.3679 23.0288 22.1661C23.5698 21.9643 24.061 21.6485 24.4692 21.2401L26.8853 18.8241C27.6188 18.0647 28.0246 17.0475 28.0155 15.9917C28.0063 14.9359 27.5828 13.926 26.8362 13.1794C26.0896 12.4328 25.0797 12.0093 24.0239 12.0002C22.9681 11.991 21.9509 12.3968 21.1915 13.1303L19.8063 14.5075" stroke="#1B1B1B" stroke-width="1.5" stroke-linecap="round" stroke-linejoin="round"/>
<path d="M21.6186 19.1949C21.2728 18.7325 20.8315 18.3499 20.3248 18.0731C19.8181 17.7962 19.2578 17.6316 18.6818 17.5904C18.1059 17.5491 17.5278 17.6322 16.9868 17.834C16.4458 18.0358 15.9546 18.3516 15.5464 18.76L13.1303 21.176C12.3968 21.9355 11.991 22.9526 12.0002 24.0084C12.0093 25.0642 12.4328 26.0741 13.1794 26.8207C13.926 27.5673 14.9359 27.9908 15.9917 28C17.0475 28.0091 18.0647 27.6033 18.8241 26.8698L20.2012 25.4926" stroke="#1B1B1B" stroke-width="1.5" stroke-linecap="round" stroke-linejoin="round"/>
</svg>
